<svg width="282" height="170" viewBox="0 0 282 170" fill="none" xmlns="http://www.w3.org/2000/svg">
<path d="M192 32.5L167 111L216 101L210 68.5L192 32.5Z" fill="url(#paint0_radial_10_2)"/>
<path d="M173 15.5L182.75 37.75L211.5 94H281.5L186 6L173 15.5Z" fill="url(#paint1_linear_10_2)"/>
<path d="M90.5 29.25H77L0 77H54L104 29.25H90.5Z" fill="url(#paint2_linear_10_2)"/>
<path d="M142 6.25H127L54 77V163H84L142 6.25Z" fill="url(#paint3_linear_10_2)"/>
<path d="M0 4H153.971V147C153.971 158.046 145.017 167 133.971 167H20C8.9543 167 0 158.046 0 147V137L0.00019455 77H53.9784V132C53.9784 134.761 56.217 137 58.9784 137H72.9857C75.1948 137 76.9857 135.209 76.9857 133V54.5H0.00019455L0 4Z" fill="black"/>
<path fill-rule="evenodd" clip-rule="evenodd" d="M281.529 94C277.034 136.713 240.904 170 197 170C150.056 170 112 131.944 112 85C112 38.0558 150.056 0 197 0C241.246 0 277.597 33.8074 281.628 77H212.004C209.142 71.6442 203.497 68 197 68C187.611 68 180 75.6112 180 85C180 94.3888 187.611 102 197 102C203.084 102 208.421 98.8043 211.425 94H281.529Z" fill="black"/>
<defs>
<radialGradient id="paint0_radial_10_2" cx="0" cy="0" r="1" gradientUnits="userSpaceOnUse" gradientTransform="translate(177 54) rotate(75.9638) scale(74.2159 39.9023)">
<stop offset="0.176359" stop-color="#464343"/>
<stop offset="1" stop-color="white"/>
<stop offset="1" stop-color="#FAFAFA"/>
</radialGradient>
<linearGradient id="paint1_linear_10_2" x1="227.25" y1="6" x2="227.25" y2="94" gradientUnits="userSpaceOnUse">
<stop offset="0.703125" stop-color="#353434"/>
<stop offset="1" stop-color="#FFFDFD"/>
</linearGradient>
<linearGradient id="paint2_linear_10_2" x1="52" y1="29.25" x2="52" y2="77" gradientUnits="userSpaceOnUse">
<stop offset="0.515625" stop-color="#393939"/>
<stop offset="1" stop-color="#EDECEC"/>
</linearGradient>
<linearGradient id="paint3_linear_10_2" x1="201.5" y1="103.5" x2="1.99999" y2="131" gradientUnits="userSpaceOnUse">
<stop offset="0.590624" stop-color="#595757"/>
<stop offset="0.848958" stop-color="#FEFEFE"/>
</linearGradient>
</defs>
</svg>
